<svg width="1400" height="425" viewBox="0 0 1400 425" fill="none" xmlns="http://www.w3.org/2000/svg">
<g clip-path="url(#clip0)">
<rect width="1400" height="425" fill="black"/>
<circle cx="50" cy="38" r="1" fill="#9D9D9D"/>
<circle cx="100" cy="38" r="1" fill="#9D9D9D"/>
<circle cx="150" cy="38" r="1" fill="#9D9D9D"/>
<circle cx="200" cy="38" r="1" fill="#9D9D9D"/>
<circle cx="250" cy="38" r="1" fill="#9D9D9D"/>
<circle cx="300" cy="38" r="1" fill="#9D9D9D"/>
<circle cx="350" cy="38" r="1" fill="#9D9D9D"/>
<circle cx="400" cy="38" r="1" fill="#9D9D9D"/>
<circle cx="450" cy="38" r="1" fill="#9D9D9D"/>
<circle cx="500" cy="38" r="1" fill="#9D9D9D"/>
<circle cx="550" cy="38" r="1" fill="#9D9D9D"/>
<circle cx="600" cy="38" r="1" fill="#9D9D9D"/>
<circle cx="650" cy="38" r="1" fill="#9D9D9D"/>
<circle cx="700" cy="38" r="1" fill="#9D9D9D"/>
<circle cx="750" cy="38" r="1" fill="#9D9D9D"/>
<circle cx="800" cy="38" r="1" fill="#9D9D9D"/>
<circle cx="850" cy="38" r="1" fill="#9D9D9D"/>
<circle cx="900" cy="38" r="1" fill="#9D9D9D"/>
<circle cx="950" cy="38" r="1" fill="#9D9D9D"/>
<circle cx="1000" cy="38" r="1" fill="#9D9D9D"/>
<circle cx="1050" cy="38" r="1" fill="#9D9D9D"/>
<circle cx="1100" cy="38" r="1" fill="#9D9D9D"/>
<circle cx="1150" cy="38" r="1" fill="#9D9D9D"/>
<circle cx="1200" cy="38" r="1" fill="#9D9D9D"/>
<circle cx="1250" cy="38" r="1" fill="#9D9D9D"/>
<circle cx="1300" cy="38" r="1" fill="#9D9D9D"/>
<circle cx="1350" cy="38" r="1" fill="#9D9D9D"/>
<circle cx="50" cy="88" r="1" fill="#9D9D9D"/>
<circle cx="100" cy="88" r="1" fill="#9D9D9D"/>
<circle cx="150" cy="88" r="1" fill="#9D9D9D"/>
<circle cx="200" cy="88" r="1" fill="#9D9D9D"/>
<circle cx="250" cy="88" r="1" fill="#9D9D9D"/>
<circle cx="300" cy="88" r="1" fill="#9D9D9D"/>
<circle cx="350" cy="88" r="1" fill="#9D9D9D"/>
<circle cx="400" cy="88" r="1" fill="#9D9D9D"/>
<circle cx="450" cy="88" r="1" fill="#9D9D9D"/>
<circle cx="500" cy="88" r="1" fill="#9D9D9D"/>
<circle cx="550" cy="88" r="1" fill="#9D9D9D"/>
<circle cx="600" cy="88" r="1" fill="#9D9D9D"/>
<circle cx="650" cy="88" r="1" fill="#9D9D9D"/>
<circle cx="700" cy="88" r="1" fill="#9D9D9D"/>
<circle cx="750" cy="88" r="1" fill="#9D9D9D"/>
<circle cx="800" cy="88" r="1" fill="#9D9D9D"/>
<circle cx="850" cy="88" r="1" fill="#9D9D9D"/>
<circle cx="900" cy="88" r="1" fill="#9D9D9D"/>
<circle cx="950" cy="88" r="1" fill="#9D9D9D"/>
<circle cx="1000" cy="88" r="1" fill="#9D9D9D"/>
<circle cx="1050" cy="88" r="1" fill="#9D9D9D"/>
<circle cx="1100" cy="88" r="1" fill="#9D9D9D"/>
<circle cx="1150" cy="88" r="1" fill="#9D9D9D"/>
<circle cx="1200" cy="88" r="1" fill="#9D9D9D"/>
<circle cx="1250" cy="88" r="1" fill="#9D9D9D"/>
<circle cx="1300" cy="88" r="1" fill="#9D9D9D"/>
<circle cx="1350" cy="88" r="1" fill="#9D9D9D"/>
<circle cx="50" cy="138" r="1" fill="#9D9D9D"/>
<circle cx="100" cy="138" r="1" fill="#9D9D9D"/>
<circle cx="150" cy="138" r="1" fill="#9D9D9D"/>
<circle cx="200" cy="138" r="1" fill="#9D9D9D"/>
<circle cx="250" cy="138" r="1" fill="#9D9D9D"/>
<circle cx="300" cy="138" r="1" fill="#9D9D9D"/>
<circle cx="350" cy="138" r="1" fill="#9D9D9D"/>
<circle cx="400" cy="138" r="1" fill="#9D9D9D"/>
<circle cx="450" cy="138" r="1" fill="#9D9D9D"/>
<circle cx="500" cy="138" r="1" fill="#9D9D9D"/>
<circle cx="900" cy="138" r="1" fill="#9D9D9D"/>
<circle cx="950" cy="138" r="1" fill="#9D9D9D"/>
<circle cx="1000" cy="138" r="1" fill="#9D9D9D"/>
<circle cx="1050" cy="138" r="1" fill="#9D9D9D"/>
<circle cx="1100" cy="138" r="1" fill="#9D9D9D"/>
<circle cx="1150" cy="138" r="1" fill="#9D9D9D"/>
<circle cx="1200" cy="138" r="1" fill="#9D9D9D"/>
<circle cx="1250" cy="138" r="1" fill="#9D9D9D"/>
<circle cx="1300" cy="138" r="1" fill="#9D9D9D"/>
<circle cx="1350" cy="138" r="1" fill="#9D9D9D"/>
<circle cx="50" cy="188" r="1" fill="#9D9D9D"/>
<circle cx="100" cy="188" r="1" fill="#9D9D9D"/>
<circle cx="150" cy="188" r="1" fill="#9D9D9D"/>
<circle cx="200" cy="188" r="1" fill="#9D9D9D"/>
<circle cx="250" cy="188" r="1" fill="#9D9D9D"/>
<circle cx="300" cy="188" r="1" fill="#9D9D9D"/>
<circle cx="350" cy="188" r="1" fill="#9D9D9D"/>
<circle cx="400" cy="188" r="1" fill="#9D9D9D"/>
<circle cx="450" cy="188" r="1" fill="#9D9D9D"/>
<circle cx="500" cy="188" r="1" fill="#9D9D9D"/>
<circle cx="900" cy="188" r="1" fill="#9D9D9D"/>
<circle cx="950" cy="188" r="1" fill="#9D9D9D"/>
<circle cx="1000" cy="188" r="1" fill="#9D9D9D"/>
<circle cx="1050" cy="188" r="1" fill="#9D9D9D"/>
<circle cx="1100" cy="188" r="1" fill="#9D9D9D"/>
<circle cx="1150" cy="188" r="1" fill="#9D9D9D"/>
<circle cx="1200" cy="188" r="1" fill="#9D9D9D"/>
<circle cx="1250" cy="188" r="1" fill="#9D9D9D"/>
<circle cx="1300" cy="188" r="1" fill="#9D9D9D"/>
<circle cx="1350" cy="188" r="1" fill="#9D9D9D"/>
<circle cx="50" cy="238" r="1" fill="#9D9D9D"/>
<circle cx="100" cy="238" r="1" fill="#9D9D9D"/>
<circle cx="150" cy="238" r="1" fill="#9D9D9D"/>
<circle cx="200" cy="238" r="1" fill="#9D9D9D"/>
<circle cx="250" cy="238" r="1" fill="#9D9D9D"/>
<circle cx="300" cy="238" r="1" fill="#9D9D9D"/>
<circle cx="350" cy="238" r="1" fill="#9D9D9D"/>
<circle cx="400" cy="238" r="1" fill="#9D9D9D"/>
<circle cx="450" cy="238" r="1" fill="#9D9D9D"/>
<circle cx="500" cy="238" r="1" fill="#9D9D9D"/>
<circle cx="900" cy="238" r="1" fill="#9D9D9D"/>
<circle cx="950" cy="238" r="1" fill="#9D9D9D"/>
<circle cx="1000" cy="238" r="1" fill="#9D9D9D"/>
<circle cx="1050" cy="238" r="1" fill="#9D9D9D"/>
<circle cx="1100" cy="238" r="1" fill="#9D9D9D"/>
<circle cx="1150" cy="238" r="1" fill="#9D9D9D"/>
<circle cx="1200" cy="238" r="1" fill="#9D9D9D"/>
<circle cx="1250" cy="238" r="1" fill="#9D9D9D"/>
<circle cx="1300" cy="238" r="1" fill="#9D9D9D"/>
<circle cx="1350" cy="238" r="1" fill="#9D9D9D"/>
<circle cx="50" cy="288" r="1" fill="#9D9D9D"/>
<circle cx="100" cy="288" r="1" fill="#9D9D9D"/>
<circle cx="150" cy="288" r="1" fill="#9D9D9D"/>
<circle cx="200" cy="288" r="1" fill="#9D9D9D"/>
<circle cx="250" cy="288" r="1" fill="#9D9D9D"/>
<circle cx="300" cy="288" r="1" fill="#9D9D9D"/>
<circle cx="350" cy="288" r="1" fill="#9D9D9D"/>
<circle cx="400" cy="288" r="1" fill="#9D9D9D"/>
<circle cx="450" cy="288" r="1" fill="#9D9D9D"/>
<circle cx="500" cy="288" r="1" fill="#9D9D9D"/>
<circle cx="900" cy="288" r="1" fill="#9D9D9D"/>
<circle cx="950" cy="288" r="1" fill="#9D9D9D"/>
<circle cx="1000" cy="288" r="1" fill="#9D9D9D"/>
<circle cx="1050" cy="288" r="1" fill="#9D9D9D"/>
<circle cx="1100" cy="288" r="1" fill="#9D9D9D"/>
<circle cx="1150" cy="288" r="1" fill="#9D9D9D"/>
<circle cx="1200" cy="288" r="1" fill="#9D9D9D"/>
<circle cx="1250" cy="288" r="1" fill="#9D9D9D"/>
<circle cx="1300" cy="288" r="1" fill="#9D9D9D"/>
<circle cx="1350" cy="288" r="1" fill="#9D9D9D"/>
<circle cx="50" cy="338" r="1" fill="#9D9D9D"/>
<circle cx="100" cy="338" r="1" fill="#9D9D9D"/>
<circle cx="150" cy="338" r="1" fill="#9D9D9D"/>
<circle cx="200" cy="338" r="1" fill="#9D9D9D"/>
<circle cx="250" cy="338" r="1" fill="#9D9D9D"/>
<circle cx="300" cy="338" r="1" fill="#9D9D9D"/>
<circle cx="350" cy="338" r="1" fill="#9D9D9D"/>
<circle cx="400" cy="338" r="1" fill="#9D9D9D"/>
<circle cx="450" cy="338" r="1" fill="#9D9D9D"/>
<circle cx="500" cy="338" r="1" fill="#9D9D9D"/>
<circle cx="550" cy="338" r="1" fill="#9D9D9D"/>
<circle cx="600" cy="338" r="1" fill="#9D9D9D"/>
<circle cx="650" cy="338" r="1" fill="#9D9D9D"/>
<circle cx="700" cy="338" r="1" fill="#9D9D9D"/>
<circle cx="750" cy="338" r="1" fill="#9D9D9D"/>
<circle cx="800" cy="338" r="1" fill="#9D9D9D"/>
<circle cx="850" cy="338" r="1" fill="#9D9D9D"/>
<circle cx="900" cy="338" r="1" fill="#9D9D9D"/>
<circle cx="950" cy="338" r="1" fill="#9D9D9D"/>
<circle cx="1000" cy="338" r="1" fill="#9D9D9D"/>
<circle cx="1050" cy="338" r="1" fill="#9D9D9D"/>
<circle cx="1100" cy="338" r="1" fill="#9D9D9D"/>
<circle cx="1150" cy="338" r="1" fill="#9D9D9D"/>
<circle cx="1200" cy="338" r="1" fill="#9D9D9D"/>
<circle cx="1250" cy="338" r="1" fill="#9D9D9D"/>
<circle cx="1300" cy="338" r="1" fill="#9D9D9D"/>
<circle cx="1350" cy="338" r="1" fill="#9D9D9D"/>
<circle cx="50" cy="388" r="1" fill="#9D9D9D"/>
<circle cx="100" cy="388" r="1" fill="#9D9D9D"/>
<circle cx="150" cy="388" r="1" fill="#9D9D9D"/>
<circle cx="200" cy="388" r="1" fill="#9D9D9D"/>
<circle cx="250" cy="388" r="1" fill="#9D9D9D"/>
<circle cx="300" cy="388" r="1" fill="#9D9D9D"/>
<circle cx="350" cy="388" r="1" fill="#9D9D9D"/>
<circle cx="400" cy="388" r="1" fill="#9D9D9D"/>
<circle cx="450" cy="388" r="1" fill="#9D9D9D"/>
<circle cx="500" cy="388" r="1" fill="#9D9D9D"/>
<circle cx="550" cy="388" r="1" fill="#9D9D9D"/>
<circle cx="600" cy="388" r="1" fill="#9D9D9D"/>
<circle cx="650" cy="388" r="1" fill="#9D9D9D"/>
<circle cx="700" cy="388" r="1" fill="#9D9D9D"/>
<circle cx="750" cy="388" r="1" fill="#9D9D9D"/>
<circle cx="800" cy="388" r="1" fill="#9D9D9D"/>
<circle cx="850" cy="388" r="1" fill="#9D9D9D"/>
<circle cx="900" cy="388" r="1" fill="#9D9D9D"/>
<circle cx="950" cy="388" r="1" fill="#9D9D9D"/>
<circle cx="1000" cy="388" r="1" fill="#9D9D9D"/>
<circle cx="1050" cy="388" r="1" fill="#9D9D9D"/>
<circle cx="1100" cy="388" r="1" fill="#9D9D9D"/>
<circle cx="1150" cy="388" r="1" fill="#9D9D9D"/>
<circle cx="1200" cy="388" r="1" fill="#9D9D9D"/>
<circle cx="1250" cy="388" r="1" fill="#9D9D9D"/>
<circle cx="1300" cy="388" r="1" fill="#9D9D9D"/>
<circle cx="1350" cy="388" r="1" fill="#9D9D9D"/>
<rect x="-22" y="-17" width="398" height="131" stroke="url(#paint0_linear)" stroke-width="2"/>
<circle cx="1273.5" cy="-23.5" r="328.5" stroke="url(#paint1_linear)" stroke-width="2"/>
<path d="M924.036 358.743L1273.41 93.7383L1273.41 636.154L924.036 358.743Z" stroke="url(#paint2_linear)" stroke-width="2"/>
<path d="M31.9789 369.024C18.9377 369.018 8.375 379.576 8.375 392.606C8.375 402.911 14.9826 411.67 24.1848 414.887C25.424 415.198 25.2342 414.317 25.2342 413.716V409.629C18.0781 410.468 17.7881 405.732 17.3082 404.941C16.3379 403.285 14.0439 402.863 14.7295 402.072C16.359 401.234 18.0201 402.283 19.9449 405.126C21.3371 407.187 24.0529 406.839 25.4293 406.497C25.7299 405.257 26.3732 404.15 27.2592 403.29C19.8447 401.962 16.7545 397.437 16.7545 392.058C16.7545 389.448 17.6141 387.048 19.3016 385.113C18.2258 381.922 19.4018 379.191 19.56 378.785C22.6238 378.511 25.809 380.979 26.0568 381.174C27.7971 380.704 29.7852 380.456 32.0105 380.456C34.2465 380.456 36.2398 380.715 37.9959 381.189C38.5918 380.736 41.5449 378.616 44.3926 378.874C44.5455 379.28 45.6951 381.949 44.6826 385.097C46.3912 387.038 47.2613 389.458 47.2613 392.074C47.2613 397.463 44.15 401.993 36.7145 403.301C37.3513 403.927 37.857 404.674 38.202 405.498C38.547 406.322 38.7243 407.207 38.7236 408.1V414.032C38.7658 414.507 38.7236 414.976 39.5146 414.976C48.8539 411.828 55.5775 403.006 55.5775 392.612C55.5775 379.576 45.0096 369.024 31.9789 369.024V369.024Z" fill="white"/>
<circle cx="550" cy="138" r="1" fill="#9D9D9D"/>
<circle cx="600" cy="138" r="1" fill="#9D9D9D"/>
<circle cx="650" cy="138" r="1" fill="#9D9D9D"/>
<circle cx="700" cy="138" r="1" fill="#9D9D9D"/>
<circle cx="750" cy="138" r="1" fill="#9D9D9D"/>
<circle cx="800" cy="138" r="1" fill="#9D9D9D"/>
<circle cx="850" cy="138" r="1" fill="#9D9D9D"/>
<circle cx="550" cy="188" r="1" fill="#9D9D9D"/>
<circle cx="600" cy="188" r="1" fill="#9D9D9D"/>
<circle cx="650" cy="188" r="1" fill="#9D9D9D"/>
<circle cx="700" cy="188" r="1" fill="#9D9D9D"/>
<circle cx="750" cy="188" r="1" fill="#9D9D9D"/>
<circle cx="800" cy="188" r="1" fill="#9D9D9D"/>
<circle cx="850" cy="188" r="1" fill="#9D9D9D"/>
<circle cx="550" cy="238" r="1" fill="#9D9D9D"/>
<circle cx="700" cy="238" r="1" fill="#9D9D9D"/>
<circle cx="750" cy="238" r="1" fill="#9D9D9D"/>
<circle cx="800" cy="238" r="1" fill="#9D9D9D"/>
<circle cx="850" cy="238" r="1" fill="#9D9D9D"/>
<circle cx="550" cy="288" r="1" fill="#9D9D9D"/>
<circle cx="600" cy="288" r="1" fill="#9D9D9D"/>
<circle cx="650" cy="288" r="1" fill="#9D9D9D"/>
<circle cx="700" cy="288" r="1" fill="#9D9D9D"/>
<circle cx="750" cy="288" r="1" fill="#9D9D9D"/>
<circle cx="800" cy="288" r="1" fill="#9D9D9D"/>
<circle cx="850" cy="288" r="1" fill="#9D9D9D"/>
<path d="M546.04 266.2H547.264L544.12 281.896H553.792L553.552 283H542.68L546.04 266.2ZM557.132 277C557.1 277.352 557.084 277.616 557.084 277.792C557.084 279.152 557.476 280.2 558.26 280.936C559.044 281.656 560.196 282.016 561.716 282.016C562.596 282.016 563.404 281.872 564.14 281.584C564.892 281.28 565.516 280.864 566.012 280.336L566.564 281.176C566.004 281.784 565.284 282.256 564.404 282.592C563.54 282.928 562.612 283.096 561.62 283.096C559.844 283.096 558.444 282.632 557.42 281.704C556.412 280.776 555.908 279.488 555.908 277.84C555.908 276.432 556.204 275.16 556.796 274.024C557.388 272.888 558.204 272 559.244 271.36C560.284 270.704 561.452 270.376 562.748 270.376C564.38 270.376 565.676 270.84 566.636 271.768C567.596 272.696 568.076 273.976 568.076 275.608C568.076 275.992 568.028 276.456 567.932 277H557.132ZM562.724 271.408C561.364 271.408 560.188 271.832 559.196 272.68C558.22 273.528 557.58 274.656 557.276 276.064H566.924C566.94 275.92 566.948 275.712 566.948 275.44C566.948 274.176 566.564 273.192 565.796 272.488C565.028 271.768 564.004 271.408 562.724 271.408ZM572.628 279.376C572.564 279.68 572.532 279.976 572.532 280.264C572.532 281.464 573.172 282.064 574.452 282.064C575.22 282.064 575.9 281.832 576.492 281.368L576.852 282.256C576.164 282.816 575.268 283.096 574.164 283.096C573.268 283.096 572.564 282.864 572.052 282.4C571.556 281.92 571.308 281.264 571.308 280.432C571.308 280.096 571.34 279.776 571.404 279.472L573.012 271.504H570.684L570.876 270.472H573.204L573.756 267.736H574.956L574.404 270.472H578.388L578.196 271.504H574.212L572.628 279.376ZM583.438 283.096C582.462 283.096 581.526 282.952 580.63 282.664C579.75 282.36 579.062 281.976 578.566 281.512L579.214 280.576C579.678 281.024 580.294 281.384 581.062 281.656C581.846 281.912 582.67 282.04 583.534 282.04C584.83 282.04 585.83 281.816 586.534 281.368C587.254 280.904 587.614 280.264 587.614 279.448C587.614 278.984 587.47 278.616 587.182 278.344C586.894 278.072 586.542 277.872 586.126 277.744C585.71 277.6 585.134 277.448 584.398 277.288C583.534 277.112 582.83 276.928 582.286 276.736C581.758 276.544 581.31 276.248 580.942 275.848C580.574 275.432 580.39 274.872 580.39 274.168C580.39 273.016 580.862 272.096 581.806 271.408C582.766 270.72 584.038 270.376 585.622 270.376C586.422 270.376 587.198 270.488 587.95 270.712C588.702 270.92 589.302 271.216 589.75 271.6L589.198 272.536C588.734 272.168 588.174 271.896 587.518 271.72C586.878 271.528 586.214 271.432 585.526 271.432C584.31 271.432 583.342 271.672 582.622 272.152C581.918 272.632 581.566 273.264 581.566 274.048C581.566 274.528 581.71 274.912 581.998 275.2C582.286 275.472 582.646 275.68 583.078 275.824C583.526 275.968 584.118 276.12 584.854 276.28C585.718 276.456 586.406 276.64 586.918 276.832C587.446 277.008 587.894 277.296 588.262 277.696C588.63 278.096 588.814 278.64 588.814 279.328C588.814 280.496 588.326 281.416 587.35 282.088C586.374 282.76 585.07 283.096 583.438 283.096ZM603.079 283.096C601.351 283.096 599.975 282.624 598.951 281.68C597.943 280.736 597.439 279.472 597.439 277.888C597.439 276.464 597.743 275.184 598.351 274.048C598.975 272.896 599.831 272 600.919 271.36C602.023 270.704 603.263 270.376 604.639 270.376C605.759 270.376 606.719 270.576 607.519 270.976C608.319 271.36 608.943 271.944 609.391 272.728L608.407 273.328C607.655 272.08 606.375 271.456 604.567 271.456C603.431 271.456 602.415 271.736 601.519 272.296C600.623 272.84 599.919 273.592 599.407 274.552C598.895 275.512 598.639 276.6 598.639 277.816C598.639 279.144 599.031 280.176 599.815 280.912C600.599 281.648 601.719 282.016 603.175 282.016C604.007 282.016 604.783 281.856 605.503 281.536C606.239 281.216 606.847 280.768 607.327 280.192L608.167 280.864C607.623 281.568 606.895 282.12 605.983 282.52C605.087 282.904 604.119 283.096 603.079 283.096ZM614.088 273.112C614.648 272.2 615.36 271.52 616.224 271.072C617.104 270.608 618.168 270.376 619.416 270.376L619.2 271.552L618.816 271.528C617.392 271.528 616.224 271.952 615.312 272.8C614.4 273.648 613.776 274.904 613.44 276.568L612.144 283H610.944L613.44 270.472H614.616L614.088 273.112ZM621.093 277C621.061 277.352 621.045 277.616 621.045 277.792C621.045 279.152 621.437 280.2 622.221 280.936C623.005 281.656 624.157 282.016 625.677 282.016C626.557 282.016 627.365 281.872 628.101 281.584C628.853 281.28 629.477 280.864 629.973 280.336L630.525 281.176C629.965 281.784 629.245 282.256 628.365 282.592C627.501 282.928 626.573 283.096 625.581 283.096C623.805 283.096 622.405 282.632 621.381 281.704C620.373 280.776 619.869 279.488 619.869 277.84C619.869 276.432 620.165 275.16 620.757 274.024C621.349 272.888 622.165 272 623.205 271.36C624.245 270.704 625.413 270.376 626.709 270.376C628.341 270.376 629.637 270.84 630.597 271.768C631.557 272.696 632.037 273.976 632.037 275.608C632.037 275.992 631.989 276.456 631.893 277H621.093ZM626.685 271.408C625.325 271.408 624.149 271.832 623.157 272.68C622.181 273.528 621.541 274.656 621.237 276.064H630.885C630.901 275.92 630.909 275.712 630.909 275.44C630.909 274.176 630.525 273.192 629.757 272.488C628.989 271.768 627.965 271.408 626.685 271.408ZM648.061 270.472L645.565 283H644.413L644.893 280.552C644.285 281.352 643.525 281.976 642.613 282.424C641.717 282.872 640.717 283.096 639.613 283.096C637.981 283.096 636.669 282.632 635.677 281.704C634.701 280.76 634.213 279.488 634.213 277.888C634.213 276.464 634.517 275.184 635.125 274.048C635.733 272.896 636.573 272 637.645 271.36C638.733 270.704 639.949 270.376 641.293 270.376C642.589 270.376 643.661 270.656 644.509 271.216C645.357 271.776 645.933 272.568 646.237 273.592L646.861 270.472H648.061ZM639.853 282.016C640.973 282.016 641.973 281.744 642.853 281.2C643.749 280.656 644.453 279.904 644.965 278.944C645.477 277.968 645.733 276.872 645.733 275.656C645.733 274.328 645.341 273.296 644.557 272.56C643.789 271.824 642.701 271.456 641.293 271.456C640.173 271.456 639.165 271.736 638.269 272.296C637.389 272.84 636.693 273.6 636.181 274.576C635.669 275.536 635.413 276.616 635.413 277.816C635.413 279.144 635.797 280.176 636.565 280.912C637.349 281.648 638.445 282.016 639.853 282.016ZM652.784 279.376C652.72 279.68 652.688 279.976 652.688 280.264C652.688 281.464 653.328 282.064 654.608 282.064C655.376 282.064 656.056 281.832 656.648 281.368L657.008 282.256C656.32 282.816 655.424 283.096 654.32 283.096C653.424 283.096 652.72 282.864 652.208 282.4C651.712 281.92 651.464 281.264 651.464 280.432C651.464 280.096 651.496 279.776 651.56 279.472L653.168 271.504H650.84L651.032 270.472H653.36L653.912 267.736H655.112L654.56 270.472H658.544L658.352 271.504H654.368L652.784 279.376ZM660.749 277C660.717 277.352 660.701 277.616 660.701 277.792C660.701 279.152 661.093 280.2 661.877 280.936C662.661 281.656 663.813 282.016 665.333 282.016C666.213 282.016 667.021 281.872 667.757 281.584C668.509 281.28 669.133 280.864 669.629 280.336L670.181 281.176C669.621 281.784 668.901 282.256 668.021 282.592C667.157 282.928 666.229 283.096 665.237 283.096C663.461 283.096 662.061 282.632 661.037 281.704C660.029 280.776 659.525 279.488 659.525 277.84C659.525 276.432 659.821 275.16 660.413 274.024C661.005 272.888 661.821 272 662.861 271.36C663.901 270.704 665.069 270.376 666.365 270.376C667.997 270.376 669.293 270.84 670.253 271.768C671.213 272.696 671.693 273.976 671.693 275.608C671.693 275.992 671.645 276.456 671.549 277H660.749ZM666.341 271.408C664.981 271.408 663.805 271.832 662.813 272.68C661.837 273.528 661.197 274.656 660.893 276.064H670.541C670.557 275.92 670.565 275.712 670.565 275.44C670.565 274.176 670.181 273.192 669.413 272.488C668.645 271.768 667.621 271.408 666.341 271.408ZM683.657 283.096C682.681 283.096 681.745 282.952 680.849 282.664C679.969 282.36 679.281 281.976 678.785 281.512L679.433 280.576C679.897 281.024 680.513 281.384 681.281 281.656C682.065 281.912 682.889 282.04 683.753 282.04C685.049 282.04 686.049 281.816 686.753 281.368C687.473 280.904 687.833 280.264 687.833 279.448C687.833 278.984 687.689 278.616 687.401 278.344C687.113 278.072 686.761 277.872 686.345 277.744C685.929 277.6 685.353 277.448 684.617 277.288C683.753 277.112 683.049 276.928 682.505 276.736C681.977 276.544 681.529 276.248 681.161 275.848C680.793 275.432 680.609 274.872 680.609 274.168C680.609 273.016 681.081 272.096 682.025 271.408C682.985 270.72 684.257 270.376 685.841 270.376C686.641 270.376 687.417 270.488 688.169 270.712C688.921 270.92 689.521 271.216 689.969 271.6L689.417 272.536C688.953 272.168 688.393 271.896 687.737 271.72C687.097 271.528 686.433 271.432 685.745 271.432C684.529 271.432 683.561 271.672 682.841 272.152C682.137 272.632 681.785 273.264 681.785 274.048C681.785 274.528 681.929 274.912 682.217 275.2C682.505 275.472 682.865 275.68 683.297 275.824C683.745 275.968 684.337 276.12 685.073 276.28C685.937 276.456 686.625 276.64 687.137 276.832C687.665 277.008 688.113 277.296 688.481 277.696C688.849 278.096 689.033 278.64 689.033 279.328C689.033 280.496 688.545 281.416 687.569 282.088C686.593 282.76 685.289 283.096 683.657 283.096ZM697.038 283.096C695.342 283.096 693.99 282.624 692.982 281.68C691.99 280.736 691.494 279.472 691.494 277.888C691.494 276.464 691.798 275.184 692.406 274.048C693.03 272.912 693.886 272.016 694.974 271.36C696.062 270.704 697.294 270.376 698.67 270.376C700.366 270.376 701.71 270.848 702.702 271.792C703.71 272.72 704.214 273.984 704.214 275.584C704.214 277.008 703.902 278.296 703.278 279.448C702.67 280.584 701.822 281.48 700.734 282.136C699.646 282.776 698.414 283.096 697.038 283.096ZM697.134 282.016C698.254 282.016 699.254 281.744 700.134 281.2C701.03 280.656 701.734 279.904 702.246 278.944C702.758 277.968 703.014 276.872 703.014 275.656C703.014 274.328 702.622 273.296 701.838 272.56C701.07 271.824 699.982 271.456 698.574 271.456C697.454 271.456 696.446 271.736 695.55 272.296C694.67 272.84 693.974 273.6 693.462 274.576C692.95 275.536 692.694 276.616 692.694 277.816C692.694 279.144 693.078 280.176 693.846 280.912C694.63 281.648 695.726 282.016 697.134 282.016ZM724.401 270.376C725.809 270.376 726.889 270.728 727.641 271.432C728.393 272.12 728.769 273.088 728.769 274.336C728.769 274.768 728.721 275.24 728.625 275.752L727.161 283H725.961L727.425 275.752C727.505 275.384 727.545 274.976 727.545 274.528C727.545 273.552 727.257 272.8 726.681 272.272C726.105 271.728 725.265 271.456 724.161 271.456C722.785 271.456 721.633 271.84 720.705 272.608C719.793 273.36 719.193 274.456 718.905 275.896L717.465 283H716.265L717.729 275.752C717.809 275.384 717.849 274.976 717.849 274.528C717.849 273.552 717.561 272.8 716.985 272.272C716.409 271.728 715.569 271.456 714.465 271.456C713.073 271.456 711.913 271.864 710.985 272.68C710.057 273.48 709.441 274.648 709.137 276.184L707.769 283H706.569L709.065 270.472H710.241L709.761 272.824C710.353 271.992 711.073 271.376 711.921 270.976C712.769 270.576 713.721 270.376 714.777 270.376C715.929 270.376 716.857 270.624 717.561 271.12C718.265 271.6 718.729 272.288 718.953 273.184C719.577 272.256 720.353 271.56 721.281 271.096C722.209 270.616 723.249 270.376 724.401 270.376ZM733.171 277C733.139 277.352 733.123 277.616 733.123 277.792C733.123 279.152 733.515 280.2 734.299 280.936C735.083 281.656 736.235 282.016 737.755 282.016C738.635 282.016 739.443 281.872 740.179 281.584C740.931 281.28 741.555 280.864 742.051 280.336L742.603 281.176C742.043 281.784 741.323 282.256 740.443 282.592C739.579 282.928 738.651 283.096 737.659 283.096C735.883 283.096 734.483 282.632 733.459 281.704C732.451 280.776 731.947 279.488 731.947 277.84C731.947 276.432 732.243 275.16 732.835 274.024C733.427 272.888 734.243 272 735.283 271.36C736.323 270.704 737.491 270.376 738.787 270.376C740.419 270.376 741.715 270.84 742.675 271.768C743.635 272.696 744.115 273.976 744.115 275.608C744.115 275.992 744.067 276.456 743.971 277H733.171ZM738.763 271.408C737.403 271.408 736.227 271.832 735.235 272.68C734.259 273.528 733.619 274.656 733.315 276.064H742.963C742.979 275.92 742.987 275.712 742.987 275.44C742.987 274.176 742.603 273.192 741.835 272.488C741.067 271.768 740.043 271.408 738.763 271.408ZM748.667 279.376C748.603 279.68 748.571 279.976 748.571 280.264C748.571 281.464 749.211 282.064 750.491 282.064C751.259 282.064 751.939 281.832 752.531 281.368L752.891 282.256C752.203 282.816 751.307 283.096 750.203 283.096C749.307 283.096 748.603 282.864 748.091 282.4C747.595 281.92 747.347 281.264 747.347 280.432C747.347 280.096 747.379 279.776 747.443 279.472L749.051 271.504H746.723L746.915 270.472H749.243L749.795 267.736H750.995L750.443 270.472H754.427L754.235 271.504H750.251L748.667 279.376ZM764.421 270.376C765.845 270.376 766.941 270.736 767.709 271.456C768.477 272.16 768.861 273.136 768.861 274.384C768.861 274.816 768.813 275.272 768.717 275.752L767.277 283H766.077L767.517 275.752C767.597 275.384 767.637 274.984 767.637 274.552C767.637 273.56 767.333 272.8 766.725 272.272C766.133 271.728 765.261 271.456 764.109 271.456C762.669 271.456 761.469 271.864 760.509 272.68C759.549 273.48 758.917 274.648 758.613 276.184L757.245 283H756.045L759.597 265.192H760.797L759.285 272.8C760.469 271.184 762.181 270.376 764.421 270.376ZM774.69 270.472H775.89L773.394 283H772.194L774.69 270.472ZM776.034 267.424C775.778 267.424 775.562 267.336 775.386 267.16C775.21 266.984 775.122 266.776 775.122 266.536C775.122 266.248 775.218 266 775.41 265.792C775.618 265.584 775.874 265.48 776.178 265.48C776.434 265.48 776.65 265.568 776.826 265.744C777.018 265.92 777.114 266.128 777.114 266.368C777.114 266.672 777.01 266.928 776.802 267.136C776.594 267.328 776.338 267.424 776.034 267.424ZM786.828 270.376C788.252 270.376 789.348 270.736 790.116 271.456C790.884 272.16 791.268 273.136 791.268 274.384C791.268 274.816 791.22 275.272 791.124 275.752L789.684 283H788.484L789.924 275.752C790.004 275.384 790.044 274.984 790.044 274.552C790.044 273.56 789.74 272.8 789.132 272.272C788.54 271.728 787.668 271.456 786.516 271.456C785.076 271.456 783.876 271.864 782.916 272.68C781.956 273.48 781.324 274.648 781.02 276.184L779.652 283H778.452L780.948 270.472H782.124L781.644 272.848C782.236 272.016 782.972 271.4 783.852 271C784.748 270.584 785.74 270.376 786.828 270.376ZM808.448 270.472L806.216 281.656C805.8 283.784 805.016 285.328 803.864 286.288C802.712 287.264 801.12 287.752 799.088 287.752C797.936 287.752 796.896 287.576 795.968 287.224C795.04 286.888 794.272 286.408 793.664 285.784L794.432 284.896C794.944 285.456 795.608 285.888 796.424 286.192C797.24 286.512 798.16 286.672 799.184 286.672C800.848 286.672 802.152 286.28 803.096 285.496C804.04 284.712 804.672 283.496 804.992 281.848L805.376 279.976C804.752 280.792 803.976 281.424 803.048 281.872C802.12 282.32 801.088 282.544 799.952 282.544C798.272 282.544 796.936 282.096 795.944 281.2C794.968 280.304 794.48 279.088 794.48 277.552C794.48 276.208 794.784 274.992 795.392 273.904C796 272.8 796.848 271.936 797.936 271.312C799.024 270.688 800.248 270.376 801.608 270.376C802.92 270.376 804.016 270.656 804.896 271.216C805.776 271.776 806.368 272.592 806.672 273.664L807.296 270.472H808.448ZM800.168 281.464C801.304 281.464 802.32 281.208 803.216 280.696C804.112 280.168 804.816 279.448 805.328 278.536C805.84 277.608 806.096 276.568 806.096 275.416C806.096 274.168 805.696 273.2 804.896 272.512C804.112 271.808 803.016 271.456 801.608 271.456C800.472 271.456 799.456 271.72 798.56 272.248C797.664 272.76 796.96 273.48 796.448 274.408C795.936 275.32 795.68 276.352 795.68 277.504C795.68 278.752 796.072 279.728 796.856 280.432C797.656 281.12 798.76 281.464 800.168 281.464ZM819.331 279.376C819.267 279.68 819.235 279.976 819.235 280.264C819.235 281.464 819.875 282.064 821.155 282.064C821.923 282.064 822.603 281.832 823.195 281.368L823.555 282.256C822.867 282.816 821.971 283.096 820.867 283.096C819.971 283.096 819.267 282.864 818.755 282.4C818.259 281.92 818.011 281.264 818.011 280.432C818.011 280.096 818.043 279.776 818.107 279.472L819.715 271.504H817.387L817.579 270.472H819.907L820.459 267.736H821.659L821.107 270.472H825.091L824.899 271.504H820.915L819.331 279.376ZM831.616 283.096C829.92 283.096 828.568 282.624 827.56 281.68C826.568 280.736 826.072 279.472 826.072 277.888C826.072 276.464 826.376 275.184 826.984 274.048C827.608 272.912 828.464 272.016 829.552 271.36C830.64 270.704 831.872 270.376 833.248 270.376C834.944 270.376 836.288 270.848 837.28 271.792C838.288 272.72 838.792 273.984 838.792 275.584C838.792 277.008 838.48 278.296 837.856 279.448C837.248 280.584 836.4 281.48 835.312 282.136C834.224 282.776 832.992 283.096 831.616 283.096ZM831.712 282.016C832.832 282.016 833.832 281.744 834.712 281.2C835.608 280.656 836.312 279.904 836.824 278.944C837.336 277.968 837.592 276.872 837.592 275.656C837.592 274.328 837.2 273.296 836.416 272.56C835.648 271.824 834.56 271.456 833.152 271.456C832.032 271.456 831.024 271.736 830.128 272.296C829.248 272.84 828.552 273.6 828.04 274.576C827.528 275.536 827.272 276.616 827.272 277.816C827.272 279.144 827.656 280.176 828.424 280.912C829.208 281.648 830.304 282.016 831.712 282.016ZM854.971 270.472L852.739 281.656C852.323 283.784 851.539 285.328 850.387 286.288C849.235 287.264 847.643 287.752 845.611 287.752C844.459 287.752 843.419 287.576 842.491 287.224C841.563 286.888 840.795 286.408 840.187 285.784L840.955 284.896C841.467 285.456 842.131 285.888 842.947 286.192C843.763 286.512 844.683 286.672 845.707 286.672C847.371 286.672 848.675 286.28 849.619 285.496C850.563 284.712 851.195 283.496 851.515 281.848L851.899 279.976C851.275 280.792 850.499 281.424 849.571 281.872C848.643 282.32 847.611 282.544 846.475 282.544C844.795 282.544 843.459 282.096 842.467 281.2C841.491 280.304 841.003 279.088 841.003 277.552C841.003 276.208 841.307 274.992 841.915 273.904C842.523 272.8 843.371 271.936 844.459 271.312C845.547 270.688 846.771 270.376 848.131 270.376C849.443 270.376 850.539 270.656 851.419 271.216C852.299 271.776 852.891 272.592 853.195 273.664L853.819 270.472H854.971ZM846.691 281.464C847.827 281.464 848.843 281.208 849.739 280.696C850.635 280.168 851.339 279.448 851.851 278.536C852.363 277.608 852.619 276.568 852.619 275.416C852.619 274.168 852.219 273.2 851.419 272.512C850.635 271.808 849.539 271.456 848.131 271.456C846.995 271.456 845.979 271.72 845.083 272.248C844.187 272.76 843.483 273.48 842.971 274.408C842.459 275.32 842.203 276.352 842.203 277.504C842.203 278.752 842.595 279.728 843.379 280.432C844.179 281.12 845.283 281.464 846.691 281.464ZM858.538 277C858.506 277.352 858.49 277.616 858.49 277.792C858.49 279.152 858.882 280.2 859.666 280.936C860.45 281.656 861.602 282.016 863.122 282.016C864.002 282.016 864.81 281.872 865.546 281.584C866.298 281.28 866.922 280.864 867.418 280.336L867.97 281.176C867.41 281.784 866.69 282.256 865.81 282.592C864.946 282.928 864.018 283.096 863.026 283.096C861.25 283.096 859.85 282.632 858.826 281.704C857.818 280.776 857.314 279.488 857.314 277.84C857.314 276.432 857.61 275.16 858.202 274.024C858.794 272.888 859.61 272 860.65 271.36C861.69 270.704 862.858 270.376 864.154 270.376C865.786 270.376 867.082 270.84 868.042 271.768C869.002 272.696 869.482 273.976 869.482 275.608C869.482 275.992 869.434 276.456 869.338 277H858.538ZM864.13 271.408C862.77 271.408 861.594 271.832 860.602 272.68C859.626 273.528 858.986 274.656 858.682 276.064H868.33C868.346 275.92 868.354 275.712 868.354 275.44C868.354 274.176 867.97 273.192 867.202 272.488C866.434 271.768 865.41 271.408 864.13 271.408ZM874.034 279.376C873.97 279.68 873.938 279.976 873.938 280.264C873.938 281.464 874.578 282.064 875.858 282.064C876.626 282.064 877.306 281.832 877.898 281.368L878.258 282.256C877.57 282.816 876.674 283.096 875.57 283.096C874.674 283.096 873.97 282.864 873.458 282.4C872.962 281.92 872.714 281.264 872.714 280.432C872.714 280.096 872.746 279.776 872.81 279.472L874.418 271.504H872.09L872.282 270.472H874.61L875.162 267.736H876.362L875.81 270.472H879.794L879.602 271.504H875.618L874.034 279.376ZM889.789 270.376C891.213 270.376 892.309 270.736 893.077 271.456C893.845 272.16 894.229 273.136 894.229 274.384C894.229 274.816 894.181 275.272 894.085 275.752L892.645 283H891.445L892.885 275.752C892.965 275.384 893.005 274.984 893.005 274.552C893.005 273.56 892.701 272.8 892.093 272.272C891.501 271.728 890.629 271.456 889.477 271.456C888.037 271.456 886.837 271.864 885.877 272.68C884.917 273.48 884.285 274.648 883.981 276.184L882.613 283H881.413L884.965 265.192H886.165L884.653 272.8C885.837 271.184 887.549 270.376 889.789 270.376ZM898.617 277C898.585 277.352 898.569 277.616 898.569 277.792C898.569 279.152 898.961 280.2 899.745 280.936C900.529 281.656 901.681 282.016 903.201 282.016C904.081 282.016 904.889 281.872 905.625 281.584C906.377 281.28 907.001 280.864 907.497 280.336L908.049 281.176C907.489 281.784 906.769 282.256 905.889 282.592C905.025 282.928 904.097 283.096 903.105 283.096C901.329 283.096 899.929 282.632 898.905 281.704C897.897 280.776 897.393 279.488 897.393 277.84C897.393 276.432 897.689 275.16 898.281 274.024C898.873 272.888 899.689 272 900.729 271.36C901.769 270.704 902.937 270.376 904.233 270.376C905.865 270.376 907.161 270.84 908.121 271.768C909.081 272.696 909.561 273.976 909.561 275.608C909.561 275.992 909.513 276.456 909.417 277H898.617ZM904.209 271.408C902.849 271.408 901.673 271.832 900.681 272.68C899.705 273.528 899.065 274.656 898.761 276.064H908.409C908.424 275.92 908.432 275.712 908.432 275.44C908.432 274.176 908.049 273.192 907.281 272.488C906.513 271.768 905.489 271.408 904.209 271.408ZM915.072 273.112C915.632 272.2 916.344 271.52 917.208 271.072C918.088 270.608 919.152 270.376 920.4 270.376L920.184 271.552L919.8 271.528C918.376 271.528 917.208 271.952 916.296 272.8C915.384 273.648 914.76 274.904 914.424 276.568L913.128 283H911.928L914.424 270.472H915.6L915.072 273.112ZM921.163 283.096C920.891 283.096 920.659 283 920.467 282.808C920.275 282.616 920.179 282.384 920.179 282.112C920.179 281.808 920.283 281.56 920.491 281.368C920.699 281.16 920.947 281.056 921.235 281.056C921.507 281.056 921.739 281.152 921.931 281.344C922.123 281.536 922.219 281.768 922.219 282.04C922.219 282.328 922.115 282.576 921.907 282.784C921.699 282.992 921.451 283.096 921.163 283.096Z" fill="white"/>
<circle cx="600" cy="238" r="1" fill="#9D9D9D"/>
<circle cx="650" cy="238" r="1" fill="#9D9D9D"/>
<path d="M559.4 210.2V227H555.512V220.112H547.88V227H543.992V210.2H547.88V216.824H555.512V210.2H559.4ZM575.759 220.592C575.759 220.64 575.735 220.976 575.687 221.6H565.919C566.095 222.4 566.511 223.032 567.167 223.496C567.823 223.96 568.639 224.192 569.615 224.192C570.287 224.192 570.879 224.096 571.391 223.904C571.919 223.696 572.407 223.376 572.855 222.944L574.847 225.104C573.631 226.496 571.855 227.192 569.519 227.192C568.063 227.192 566.775 226.912 565.655 226.352C564.535 225.776 563.671 224.984 563.063 223.976C562.455 222.968 562.151 221.824 562.151 220.544C562.151 219.28 562.447 218.144 563.039 217.136C563.647 216.112 564.471 215.32 565.511 214.76C566.567 214.184 567.743 213.896 569.039 213.896C570.303 213.896 571.447 214.168 572.471 214.712C573.495 215.256 574.295 216.04 574.871 217.064C575.463 218.072 575.759 219.248 575.759 220.592ZM569.063 216.728C568.215 216.728 567.503 216.968 566.927 217.448C566.351 217.928 565.999 218.584 565.871 219.416H572.231C572.103 218.6 571.751 217.952 571.175 217.472C570.599 216.976 569.895 216.728 569.063 216.728ZM578.251 209.192H581.995V227H578.251V209.192ZM585.47 209.192H589.214V227H585.47V209.192ZM598.833 227.192C597.473 227.192 596.249 226.912 595.161 226.352C594.089 225.776 593.249 224.984 592.641 223.976C592.033 222.968 591.729 221.824 591.729 220.544C591.729 219.264 592.033 218.12 592.641 217.112C593.249 216.104 594.089 215.32 595.161 214.76C596.249 214.184 597.473 213.896 598.833 213.896C600.193 213.896 601.409 214.184 602.481 214.76C603.553 215.32 604.393 216.104 605.001 217.112C605.609 218.12 605.913 219.264 605.913 220.544C605.913 221.824 605.609 222.968 605.001 223.976C604.393 224.984 603.553 225.776 602.481 226.352C601.409 226.912 600.193 227.192 598.833 227.192ZM598.833 224.12C599.793 224.12 600.577 223.8 601.185 223.16C601.809 222.504 602.121 221.632 602.121 220.544C602.121 219.456 601.809 218.592 601.185 217.952C600.577 217.296 599.793 216.968 598.833 216.968C597.873 216.968 597.081 217.296 596.457 217.952C595.833 218.592 595.521 219.456 595.521 220.544C595.521 221.632 595.833 222.504 596.457 223.16C597.081 223.8 597.873 224.12 598.833 224.12ZM635.948 214.088L631.268 227H627.668L624.764 218.984L621.764 227H618.164L613.508 214.088H617.036L620.084 222.824L623.252 214.088H626.42L629.492 222.824L632.636 214.088H635.948ZM643.481 227.192C642.121 227.192 640.897 226.912 639.809 226.352C638.737 225.776 637.897 224.984 637.289 223.976C636.681 222.968 636.377 221.824 636.377 220.544C636.377 219.264 636.681 218.12 637.289 217.112C637.897 216.104 638.737 215.32 639.809 214.76C640.897 214.184 642.121 213.896 643.481 213.896C644.841 213.896 646.057 214.184 647.129 214.76C648.201 215.32 649.041 216.104 649.649 217.112C650.257 218.12 650.561 219.264 650.561 220.544C650.561 221.824 650.257 222.968 649.649 223.976C649.041 224.984 648.201 225.776 647.129 226.352C646.057 226.912 644.841 227.192 643.481 227.192ZM643.481 224.12C644.441 224.12 645.225 223.8 645.833 223.16C646.457 222.504 646.769 221.632 646.769 220.544C646.769 219.456 646.457 218.592 645.833 217.952C645.225 217.296 644.441 216.968 643.481 216.968C642.521 216.968 641.729 217.296 641.105 217.952C640.481 218.592 640.169 219.456 640.169 220.544C640.169 221.632 640.481 222.504 641.105 223.16C641.729 223.8 642.521 224.12 643.481 224.12ZM656.64 215.792C657.088 215.168 657.688 214.696 658.44 214.376C659.208 214.056 660.088 213.896 661.08 213.896V217.352C660.664 217.32 660.384 217.304 660.24 217.304C659.168 217.304 658.328 217.608 657.72 218.216C657.112 218.808 656.808 219.704 656.808 220.904V227H653.064V214.088H656.64V215.792ZM663.306 209.192H667.05V227H663.306V209.192ZM683.677 209.192V227H680.101V225.512C679.173 226.632 677.829 227.192 676.069 227.192C674.853 227.192 673.749 226.92 672.757 226.376C671.781 225.832 671.013 225.056 670.453 224.048C669.893 223.04 669.613 221.872 669.613 220.544C669.613 219.216 669.893 218.048 670.453 217.04C671.013 216.032 671.781 215.256 672.757 214.712C673.749 214.168 674.853 213.896 676.069 213.896C677.717 213.896 679.005 214.416 679.933 215.456V209.192H683.677ZM676.717 224.12C677.661 224.12 678.445 223.8 679.069 223.16C679.693 222.504 680.005 221.632 680.005 220.544C680.005 219.456 679.693 218.592 679.069 217.952C678.445 217.296 677.661 216.968 676.717 216.968C675.757 216.968 674.965 217.296 674.341 217.952C673.717 218.592 673.405 219.456 673.405 220.544C673.405 221.632 673.717 222.504 674.341 223.16C674.965 223.8 675.757 224.12 676.717 224.12ZM688.558 227.192C687.902 227.192 687.35 226.968 686.902 226.52C686.454 226.072 686.23 225.512 686.23 224.84C686.23 224.152 686.454 223.6 686.902 223.184C687.35 222.752 687.902 222.536 688.558 222.536C689.214 222.536 689.766 222.752 690.214 223.184C690.662 223.6 690.886 224.152 690.886 224.84C690.886 225.512 690.662 226.072 690.214 226.52C689.766 226.968 689.214 227.192 688.558 227.192Z" fill="white"/>
<path d="M549.112 246.4L546.856 248.752V253H542.992V236.2H546.856V244.048L554.296 236.2H558.616L551.656 243.688L559.024 253H554.488L549.112 246.4ZM563.835 241.792C564.283 241.168 564.883 240.696 565.635 240.376C566.403 240.056 567.283 239.896 568.275 239.896V243.352C567.859 243.32 567.579 243.304 567.435 243.304C566.363 243.304 565.523 243.608 564.915 244.216C564.307 244.808 564.003 245.704 564.003 246.904V253H560.259V240.088H563.835V241.792ZM570.501 240.088H574.245V253H570.501V240.088ZM572.373 238.288C571.685 238.288 571.125 238.088 570.693 237.688C570.261 237.288 570.045 236.792 570.045 236.2C570.045 235.608 570.261 235.112 570.693 234.712C571.125 234.312 571.685 234.112 572.373 234.112C573.061 234.112 573.621 234.304 574.053 234.688C574.485 235.072 574.701 235.552 574.701 236.128C574.701 236.752 574.485 237.272 574.053 237.688C573.621 238.088 573.061 238.288 572.373 238.288ZM582.064 253.192C580.992 253.192 579.944 253.064 578.92 252.808C577.896 252.536 577.08 252.2 576.472 251.8L577.72 249.112C578.296 249.48 578.992 249.784 579.808 250.024C580.624 250.248 581.424 250.36 582.208 250.36C583.792 250.36 584.584 249.968 584.584 249.184C584.584 248.816 584.368 248.552 583.936 248.392C583.504 248.232 582.84 248.096 581.944 247.984C580.888 247.824 580.016 247.64 579.328 247.432C578.64 247.224 578.04 246.856 577.528 246.328C577.032 245.8 576.784 245.048 576.784 244.072C576.784 243.256 577.016 242.536 577.48 241.912C577.96 241.272 578.648 240.776 579.544 240.424C580.456 240.072 581.528 239.896 582.76 239.896C583.672 239.896 584.576 240 585.472 240.208C586.384 240.4 587.136 240.672 587.728 241.024L586.48 243.688C585.344 243.048 584.104 242.728 582.76 242.728C581.96 242.728 581.36 242.84 580.96 243.064C580.56 243.288 580.36 243.576 580.36 243.928C580.36 244.328 580.576 244.608 581.008 244.768C581.44 244.928 582.128 245.08 583.072 245.224C584.128 245.4 584.992 245.592 585.664 245.8C586.336 245.992 586.92 246.352 587.416 246.88C587.912 247.408 588.16 248.144 588.16 249.088C588.16 249.888 587.92 250.6 587.44 251.224C586.96 251.848 586.256 252.336 585.328 252.688C584.416 253.024 583.328 253.192 582.064 253.192ZM598.318 239.896C599.918 239.896 601.206 240.376 602.182 241.336C603.174 242.296 603.67 243.72 603.67 245.608V253H599.926V246.184C599.926 245.16 599.702 244.4 599.254 243.904C598.806 243.392 598.158 243.136 597.31 243.136C596.366 243.136 595.614 243.432 595.054 244.024C594.494 244.6 594.214 245.464 594.214 246.616V253H590.47V235.192H594.214V241.432C594.71 240.936 595.31 240.56 596.014 240.304C596.718 240.032 597.486 239.896 598.318 239.896ZM621.709 239.896C623.309 239.896 624.597 240.376 625.573 241.336C626.565 242.296 627.061 243.72 627.061 245.608V253H623.317V246.184C623.317 245.16 623.093 244.4 622.645 243.904C622.197 243.392 621.549 243.136 620.701 243.136C619.757 243.136 619.005 243.432 618.445 244.024C617.885 244.6 617.605 245.464 617.605 246.616V253H613.861V235.192H617.605V241.432C618.101 240.936 618.701 240.56 619.405 240.304C620.109 240.032 620.877 239.896 621.709 239.896ZM643.243 246.592C643.243 246.64 643.219 246.976 643.171 247.6H633.403C633.579 248.4 633.995 249.032 634.651 249.496C635.307 249.96 636.123 250.192 637.099 250.192C637.771 250.192 638.363 250.096 638.875 249.904C639.403 249.696 639.891 249.376 640.339 248.944L642.331 251.104C641.115 252.496 639.339 253.192 637.003 253.192C635.547 253.192 634.259 252.912 633.139 252.352C632.019 251.776 631.155 250.984 630.547 249.976C629.939 248.968 629.635 247.824 629.635 246.544C629.635 245.28 629.931 244.144 630.523 243.136C631.131 242.112 631.955 241.32 632.995 240.76C634.051 240.184 635.227 239.896 636.523 239.896C637.787 239.896 638.931 240.168 639.955 240.712C640.979 241.256 641.779 242.04 642.355 243.064C642.947 244.072 643.243 245.248 643.243 246.592ZM636.547 242.728C635.699 242.728 634.987 242.968 634.411 243.448C633.835 243.928 633.483 244.584 633.355 245.416H639.715C639.587 244.6 639.235 243.952 638.659 243.472C638.083 242.976 637.379 242.728 636.547 242.728ZM649.312 241.792C649.76 241.168 650.36 240.696 651.112 240.376C651.88 240.056 652.76 239.896 653.752 239.896V243.352C653.336 243.32 653.056 243.304 652.912 243.304C651.84 243.304 651 243.608 650.392 244.216C649.784 244.808 649.48 245.704 649.48 246.904V253H645.736V240.088H649.312V241.792ZM668.509 246.592C668.509 246.64 668.485 246.976 668.437 247.6H658.669C658.845 248.4 659.261 249.032 659.917 249.496C660.573 249.96 661.389 250.192 662.365 250.192C663.037 250.192 663.629 250.096 664.141 249.904C664.669 249.696 665.157 249.376 665.605 248.944L667.597 251.104C666.381 252.496 664.605 253.192 662.269 253.192C660.813 253.192 659.525 252.912 658.405 252.352C657.285 251.776 656.421 250.984 655.813 249.976C655.205 248.968 654.901 247.824 654.901 246.544C654.901 245.28 655.197 244.144 655.789 243.136C656.397 242.112 657.221 241.32 658.261 240.76C659.317 240.184 660.493 239.896 661.789 239.896C663.053 239.896 664.197 240.168 665.221 240.712C666.245 241.256 667.045 242.04 667.621 243.064C668.213 244.072 668.509 245.248 668.509 246.592ZM661.813 242.728C660.965 242.728 660.253 242.968 659.677 243.448C659.101 243.928 658.749 244.584 658.621 245.416H664.981C664.853 244.6 664.501 243.952 663.925 243.472C663.349 242.976 662.645 242.728 661.813 242.728ZM670.521 236.2H674.985L674.241 247.168H671.265L670.521 236.2ZM672.753 253.192C672.097 253.192 671.545 252.984 671.097 252.568C670.665 252.136 670.449 251.616 670.449 251.008C670.449 250.4 670.665 249.896 671.097 249.496C671.529 249.08 672.081 248.872 672.753 248.872C673.425 248.872 673.977 249.08 674.409 249.496C674.841 249.896 675.057 250.4 675.057 251.008C675.057 251.616 674.833 252.136 674.385 252.568C673.953 252.984 673.409 253.192 672.753 253.192Z" fill="white"/>
<circle cx="571" cy="160" r="21" fill="url(#paint3_linear)"/>
<rect x="609" y="139" width="40" height="40" fill="url(#paint4_linear)"/>
<path d="M665.014 159.5L692.514 139L693.514 181L665.014 159.5Z" fill="url(#paint5_linear)"/>
</g>
<defs>
<linearGradient id="paint0_linear" x1="377" y1="-18" x2="-23" y2="115" gradientUnits="userSpaceOnUse">
<stop stop-color="#D75070"/>
<stop offset="1" stop-color="#5876D3"/>
</linearGradient>
<linearGradient id="paint1_linear" x1="1092" y1="-281.5" x2="1476.5" y2="223" gradientUnits="userSpaceOnUse">
<stop stop-color="#C2999C"/>
<stop offset="1" stop-color="#B74962"/>
</linearGradient>
<linearGradient id="paint2_linear" x1="1178" y1="100.5" x2="1171.5" y2="578" gradientUnits="userSpaceOnUse">
<stop stop-color="#A5FED8"/>
<stop offset="1" stop-color="#DC9CA4"/>
</linearGradient>
<linearGradient id="paint3_linear" x1="571" y1="139" x2="571" y2="181" gradientUnits="userSpaceOnUse">
<stop stop-color="#E6758B"/>
<stop offset="1" stop-color="#74DBAA"/>
</linearGradient>
<linearGradient id="paint4_linear" x1="629" y1="139" x2="629" y2="179" gradientUnits="userSpaceOnUse">
<stop stop-color="#FC5E85"/>
<stop offset="1" stop-color="#408AFD"/>
</linearGradient>
<linearGradient id="paint5_linear" x1="693" y1="180.5" x2="692.5" y2="139.5" gradientUnits="userSpaceOnUse">
<stop stop-color="#FA8B25"/>
<stop offset="1" stop-color="#FF607E"/>
</linearGradient>
<clipPath id="clip0">
<rect width="1400" height="425" fill="white"/>
</clipPath>
</defs>
</svg>
